<svg width="41" height="41" viewBox="0 0 41 41" fill="none" xmlns="http://www.w3.org/2000/svg">
<path d="M18.75 3.54579C15.4856 1.22443 11.6891 -0.00634986 7.8125 2.46361e-05C5.50623 -0.00259261 3.21645 0.43153 1.04167 1.28372C0.737065 1.40328 0.473336 1.62473 0.286788 1.91759C0.10024 2.21044 4.59994e-05 2.56029 0 2.91898V35.8787C3.55858e-05 36.1562 0.0600352 36.4296 0.174961 36.676C0.289888 36.9225 0.456387 37.1347 0.660481 37.2949C0.864575 37.4551 1.10031 37.5586 1.34789 37.5967C1.59547 37.6348 1.84768 37.6064 2.08333 37.5139C3.92361 36.7933 5.86111 36.4265 7.8125 36.4292C11.9688 36.4292 15.7771 38.0644 18.75 40.7914V3.54579ZM21.875 40.7914C24.9508 37.9653 28.8199 36.4221 32.8125 36.4292C34.825 36.4292 36.75 36.8131 38.5417 37.5162C38.7775 37.6088 39.0299 37.6372 39.2776 37.5989C39.5254 37.5607 39.7612 37.457 39.9654 37.2965C40.1695 37.1361 40.336 36.9235 40.4508 36.6768C40.5655 36.4301 40.6253 36.1564 40.625 35.8787V2.91898C40.625 2.56029 40.5248 2.21044 40.3382 1.91759C40.1517 1.62473 39.8879 1.40328 39.5833 1.28372C37.4085 0.43153 35.1188 -0.00259261 32.8125 2.46361e-05C28.9359 -0.00634986 25.1394 1.22443 21.875 3.54579V40.7914Z" fill="white"/>
</svg>
