<svg width="24" height="25" viewBox="0 0 24 25" fill="none" xmlns="http://www.w3.org/2000/svg">
<path d="M15.24 22.4692H15.11C10.67 22.4692 8.53002 20.7192 8.16002 16.7992C8.12002 16.3892 8.42002 16.0192 8.84002 15.9792C9.24002 15.9392 9.62002 16.2492 9.66002 16.6592C9.95002 19.7992 11.43 20.9692 15.12 20.9692H15.25C19.32 20.9692 20.76 19.5292 20.76 15.4592V8.9392C20.76 4.8692 19.32 3.4292 15.25 3.4292H15.12C11.41 3.4292 9.93002 4.6192 9.66002 7.8192C9.61002 8.2292 9.26002 8.5392 8.84002 8.4992C8.42002 8.4692 8.12001 8.0992 8.15001 7.6892C8.49001 3.7092 10.64 1.9292 15.11 1.9292H15.24C20.15 1.9292 22.25 4.0292 22.25 8.9392V15.4592C22.25 20.3692 20.15 22.4692 15.24 22.4692Z" fill="#FF5969"/>
<path d="M15 12.9492H3.62C3.21 12.9492 2.87 12.6092 2.87 12.1992C2.87 11.7892 3.21 11.4492 3.62 11.4492H15C15.41 11.4492 15.75 11.7892 15.75 12.1992C15.75 12.6092 15.41 12.9492 15 12.9492Z" fill="#FF5969"/>
<path d="M5.84994 16.2993C5.65994 16.2993 5.46994 16.2293 5.31994 16.0793L1.96994 12.7293C1.67994 12.4393 1.67994 11.9593 1.96994 11.6693L5.31994 8.31931C5.60994 8.02931 6.08994 8.02931 6.37994 8.31931C6.66994 8.60931 6.66994 9.08931 6.37994 9.37931L3.55994 12.1993L6.37994 15.0193C6.66994 15.3093 6.66994 15.7893 6.37994 16.0793C6.23994 16.2293 6.03994 16.2993 5.84994 16.2993Z" fill="#FF5969"/>
</svg>
