<svg width="40" height="32" viewBox="0 0 40 32" fill="none" xmlns="http://www.w3.org/2000/svg">
<path opacity="0.5" d="M19.9999 9.99988V31.8888C29.8888 26.4443 38.2222 29.9999 40 31.9999V9.99987C33 5.99986 21.8148 6.62951 19.9999 9.99988Z" fill="#DBE5FF"/>
<path d="M19.9999 10.0001V31.889C26.3333 23.6668 34.3333 25.6668 36.8889 26.1112V4.33343C31 2.44453 21.8148 6.62973 19.9999 10.0001Z" fill="#F0F4FF"/>
<path d="M19.9999 9.74947V31.5556C23.4089 23.6965 32.4261 22.9217 34.2222 23.0324V0.00865083C29.9995 -0.257008 20.8797 5.65389 19.9999 9.74947Z" fill="url(#paint0_linear_125008_295)"/>
<path opacity="0.5" d="M19.9999 9.99988V31.8888C10.111 26.4443 1.77769 29.9999 -9.53674e-05 31.9999V9.99987C6.99992 5.99986 18.1851 6.62951 19.9999 9.99988Z" fill="#DBE5FF"/>
<path d="M19.9999 10.0001V31.889C13.6666 23.6668 5.66658 25.6668 3.11102 26.1112V4.33343C8.99992 2.44453 18.1851 6.62973 19.9999 10.0001Z" fill="#F0F4FF"/>
<path d="M19.9999 9.74947V31.5556C16.591 23.6965 7.5738 22.9217 5.77769 23.0324V0.00865083C10.0004 -0.257008 19.1202 5.65389 19.9999 9.74947Z" fill="url(#paint1_linear_125008_295)"/>
<defs>
<linearGradient id="paint0_linear_125008_295" x1="19.9999" y1="18.7778" x2="34.2222" y2="18.7778" gradientUnits="userSpaceOnUse">
<stop stop-color="#FAFBFF" stop-opacity="0.49"/>
<stop offset="1" stop-color="#FAFBFF"/>
</linearGradient>
<linearGradient id="paint1_linear_125008_295" x1="19.9999" y1="18.7778" x2="5.77769" y2="18.7778" gradientUnits="userSpaceOnUse">
<stop stop-color="#FAFBFF" stop-opacity="0.49"/>
<stop offset="1" stop-color="#FAFBFF"/>
</linearGradient>
</defs>
</svg>
